<?xml version="1.0" encoding="UTF-8"?>
<svg width="60px" height="26px" viewBox="0 0 60 26" version="1.1" xmlns="http://www.w3.org/2000/svg" xmlns:xlink="http://www.w3.org/1999/xlink">
    <!-- Generator: Sketch 60 (88103) - https://sketch.com -->
    <title>爱优漫二维码</title>
    <desc>Created with Sketch.</desc>
    <defs>
        <linearGradient x1="0%" y1="48.0318135%" x2="98.4186398%" y2="54.9474035%" id="linearGradient-1">
            <stop stop-color="#F25267" offset="0%"></stop>
            <stop stop-color="#FF8583" offset="100%"></stop>
        </linearGradient>
    </defs>
    <g id="页面-1" stroke="none" stroke-width="1" fill="none" fill-rule="evenodd">
        <g id="爱优漫-默认状态" transform="translate(-1560.000000, -720.000000)">
            <g id="编组-4" transform="translate(1560.000000, 654.000000)">
                <g id="爱优漫二维码" transform="translate(0.000000, 66.000000)">
                    <path d="M10,2 L50,2 C54.418278,2 58,5.581722 58,10 L58,16 C58,20.418278 54.418278,24 50,24 L10,24 C5.581722,24 2,20.418278 2,16 L2,10 C2,5.581722 5.581722,2 10,2 Z" id="Mask" fill="url(#linearGradient-1)"></path>
                    <path d="M10,0.5 C4.75329488,0.5 0.5,4.75329488 0.5,10 L0.5,16 C0.5,21.2467051 4.75329488,25.5 10,25.5 L50,25.5 C55.2467051,25.5 59.5,21.2467051 59.5,16 L59.5,10 C59.5,4.75329488 55.2467051,0.5 50,0.5 L10,0.5 Z" id="Mask" stroke="#F25267"></path>
                </g>
            </g>
        </g>
    </g>
</svg>