<?xml version="1.0" encoding="UTF-8"?>
<svg width="64px" height="64px" viewBox="0 0 64 64" version="1.1" xmlns="http://www.w3.org/2000/svg" xmlns:xlink="http://www.w3.org/1999/xlink">
    <!-- Generator: Sketch 60 (88103) - https://sketch.com -->
    <title>爱优漫弹幕</title>
    <desc>Created with Sketch.</desc>
    <defs>
        <linearGradient x1="0%" y1="37.2474529%" x2="98.4186398%" y2="82.0559036%" id="linearGradient-1">
            <stop stop-color="#F25267" offset="0%"></stop>
            <stop stop-color="#FF8583" offset="100%"></stop>
        </linearGradient>
        <linearGradient x1="38.5135542%" y1="92.3120117%" x2="46.0969175%" y2="-25.6884766%" id="linearGradient-2">
            <stop stop-color="#FF8796" offset="0%"></stop>
            <stop stop-color="#FACECE" offset="100%"></stop>
        </linearGradient>
        <linearGradient x1="50%" y1="97.8475949%" x2="38.6876369%" y2="-40.5727412%" id="linearGradient-3">
            <stop stop-color="#FF8796" offset="0%"></stop>
            <stop stop-color="#FFFFFF" offset="100%"></stop>
        </linearGradient>
        <radialGradient cx="50%" cy="0%" fx="50%" fy="0%" r="106.503559%" id="radialGradient-4">
            <stop stop-color="#FFFFFF" offset="0%"></stop>
            <stop stop-color="#FFC2C9" offset="87.9244942%"></stop>
            <stop stop-color="#FFFFFF" offset="100%"></stop>
        </radialGradient>
    </defs>
    <g id="页面-1" stroke="none" stroke-width="1" fill="none" fill-rule="evenodd">
        <g id="爱优漫-默认状态" transform="translate(-1558.000000, -652.000000)">
            <g id="编组-4" transform="translate(1558.000000, 652.000000)">
                <g id="编组-2">
                    <g id="爱优漫弹幕">
                        <path d="M32,4 C47.463973,4 60,16.536027 60,32 C60,47.463973 47.463973,60 32,60 C16.536027,60 4,47.463973 4,32 C4,16.536027 16.536027,4 32,4 Z" id="Mask" fill="url(#linearGradient-1)" transform="translate(32.000000, 32.000000) scale(1, -1) translate(-32.000000, -32.000000) "></path>
                        <path d="M31.5,2.5 C15.4837423,2.5 2.5,15.4837423 2.5,31.5 L2.5,32.5 C2.5,48.5162577 15.4837423,61.5 31.5,61.5 L32.5,61.5 C48.5162577,61.5 61.5,48.5162577 61.5,32.5 L61.5,31.5 C61.5,15.4837423 48.5162577,2.5 32.5,2.5 L31.5,2.5 Z" id="Mask" stroke="#F25267" transform="translate(32.000000, 32.000000) scale(1, -1) translate(-32.000000, -32.000000) "></path>
                        <g id="弹幕" transform="translate(16.000000, 10.000000)">
                            <rect id="矩形" fill="#000000" fill-rule="nonzero" opacity="0" x="0" y="0" width="32" height="32"></rect>
                            <path d="M14.5238513,25.7892345 C14.7611103,25.5746352 15.0849096,25.4636364 15.4181818,25.4636364 L15.9272727,25.4636364 C18.9550112,25.4636364 21.6269241,25.3757445 24.1888208,25.1735901 C26.3907492,25.0440649 28.1545455,23.1600098 28.1545455,20.9454545 L28.1545455,8.43636362 C28.1545455,6.29899356 26.607194,4.53888124 24.5308038,4.27920891 C21.2273267,3.94039074 18.5950103,3.77272728 16,3.77272728 C13.261755,3.77272728 10.4840559,3.96611139 7.4074719,4.35068441 C5.34620904,4.60834227 3.77272728,6.41784629 3.77272728,8.50909091 L3.77272728,21.0181818 C3.77272728,23.232737 5.53652357,25.1167922 7.70909091,25.2454545 L8,25.2454545 C8.57731988,25.2454545 9.11861687,25.5957055 9.31994088,26.1036659 L10.2454545,27.9546933 L10.2454545,27.9549167 C10.4598929,28.23016 10.7933611,28.2890016 11.0681044,28.0930658 L14.5238513,25.7892345 Z M10.1936705,27.8668247 C10.1764681,27.8374964 10.1563208,27.8128504 10.1353715,27.7919011 C10.1705132,27.8270428 10.201517,27.8625949 10.2275458,27.900851 Z" id="路径" stroke="#FFFFFF" fill="url(#linearGradient-2)"></path>
                            <path d="M14.9340974,25.6137426 C15.0716332,25.4765125 15.277937,25.4078974 15.4842407,25.4078974 L15.965616,25.4078974 C18.5787966,25.4078974 21.191977,25.3392824 23.8051576,25.1334372 C26.1432665,24.9962071 28,23.0063704 28,20.6734585 L28,8.87166894 C28,6.6073721 26.3495702,4.75476558 24.1489971,4.48030539 C21.4670487,4.20584516 18.7851003,4 16.0343839,4 C13.2836676,4 10.6017192,4.20584516 7.85100284,4.54892045 C5.65042979,4.82338068 4,6.74460223 4,8.94028401 L4,20.7420736 C4,23.0749855 5.85673353,25.0648221 8.1948424,25.2020522 L8.46991403,25.2020522 C8.81375358,25.2020522 9.15759311,25.4078974 9.29512894,25.7509727 L10.1203438,27.397734 C10.1203438,27.4663491 10.1891117,27.4663491 10.1891117,27.5349641 C10.5329513,28.0152695 11.1518624,28.1524996 11.6332378,27.8094244 L14.9340974,25.6137426 Z" id="路径" fill="url(#linearGradient-3)"></path>
                            <path d="M15.0229226,24.8125974 C15.1489971,24.6868031 15.3381089,24.623906 15.5272206,24.623906 L15.9684814,24.623906 C18.3638968,24.623906 20.7593123,24.5610088 23.1547278,24.3723174 C25.2979943,24.2465232 27,22.4225062 27,20.2840037 L27,9.46569653 C27,7.39009109 25.487106,5.69186845 23.469914,5.44027994 C21.0114613,5.1886914 18.5530086,5 16.0315186,5 C13.5100286,5 11.0515759,5.1886914 8.53008594,5.50317708 C6.51289397,5.75476562 5,7.51588538 5,9.52859367 L5,20.3469008 C5,22.4854034 6.70200574,24.3094203 8.8452722,24.4352145 L9.0974212,24.4352145 C9.41260745,24.4352145 9.72779368,24.6239059 9.85386819,24.9383916 L10.6103152,26.4479229 C10.6103152,26.51082 10.6733524,26.51082 10.6733524,26.5737171 C10.9885387,27.0139971 11.5558739,27.1397913 11.9971346,26.8253057 L15.0229226,24.8125974 Z" id="路径" fill="url(#radialGradient-4)"></path>
                            <circle id="Oval" fill="#FFFFFF" opacity="0.626811594" cx="21.5" cy="7.5" r="1.5"></circle>
                            <circle id="Oval-Copy" fill="#FFFFFF" opacity="0.311254529" cx="19" cy="7" r="2"></circle>
                            <path d="M19.6363636,18.9090909 C19.0545454,18.9090909 18.5454545,18.4 18.5454545,17.8181818 C18.5454545,17.2363636 19.0545455,16.7272727 19.6363636,16.7272727 L20.9454545,16.7272727 C21.5272727,16.7272727 22.0363636,17.2363636 22.0363636,17.8181818 C22.0363636,18.4 21.6,18.9090909 20.9454545,18.9090909 L19.6363636,18.9090909 Z" id="路径" fill="#FF8B9A" fill-rule="nonzero"></path>
                            <path d="M9.45454547,18.9090909 C8.87272728,18.9090909 8.36363638,18.4 8.36363638,17.8181818 C8.36363638,17.2363636 8.87272728,16.7272727 9.45454547,16.7272727 L14.4727273,16.7272727 C15.0545455,16.7272727 15.5636364,17.2363636 15.5636364,17.8181818 C15.5636364,18.4 15.0545455,18.9090909 14.4727273,18.9090909 L9.45454547,18.9090909 Z" id="路径" fill="#FF8B9A" fill-rule="nonzero"></path>
                            <path d="M9.45454547,12.3636364 C8.87272728,12.3636364 8.36363638,11.8545455 8.36363638,11.2727273 C8.36363638,10.6909091 8.87272728,10.1818182 9.45454547,10.1818182 L21.0909091,10.1818182 C21.6727273,10.1818182 22.1818182,10.6909091 22.1818182,11.2727273 C22.1818182,11.8545455 21.6727273,12.3636364 21.0909091,12.3636364 L9.45454547,12.3636364 Z" id="路径" fill="#FF8B9A" fill-rule="nonzero"></path>
                        </g>
                    </g>
                </g>
            </g>
        </g>
    </g>
</svg>